<?xml version="1.0" encoding="UTF-8"?>
<svg xmlns="http://www.w3.org/2000/svg" xmlns:xlink="http://www.w3.org/1999/xlink" width="16px" height="16px" viewBox="0 0 16 16" version="1.1">
<g id="surface1">
<path style=" stroke:none;fill-rule:nonzero;fill:rgb(100%,100%,100%);fill-opacity:1;" d="M 2.5 0 L 13.5 0 C 14.878906 0 16 1.121094 16 2.5 L 16 13.5 C 16 14.878906 14.878906 16 13.5 16 L 2.5 16 C 1.121094 16 0 14.878906 0 13.5 L 0 2.5 C 0 1.121094 1.121094 0 2.5 0 Z M 2.5 0 "/>
<path style=" stroke:none;fill-rule:nonzero;fill:rgb(16.862745%,18.039216%,29.019608%);fill-opacity:1;" d="M 7.953125 1.554688 C 7.953125 1.25 7.695312 1 7.375 1 C 7.050781 1 6.792969 1.25 6.792969 1.554688 L 6.792969 7.308594 C 6.792969 7.46875 6.726562 7.625 6.609375 7.738281 L 3.523438 10.757812 C 3.292969 10.984375 3.296875 11.34375 3.53125 11.566406 C 3.761719 11.789062 4.136719 11.785156 4.367188 11.5625 L 7.753906 8.25 C 7.875 8.132812 7.953125 7.980469 7.953125 7.789062 Z M 7.953125 1.554688 "/>
<path style=" stroke:none;fill-rule:nonzero;fill:rgb(1.176471%,78.823529%,53.333333%);fill-opacity:1;" d="M 9.539062 4.609375 C 9.335938 4.503906 9.121094 4.417969 8.90625 4.347656 C 8.800781 4.316406 8.730469 4.226562 8.730469 4.125 L 8.730469 1.265625 C 8.730469 1.125 8.859375 1.019531 9.003906 1.042969 C 9.742188 1.175781 10.460938 1.414062 11.125 1.757812 C 12.1875 2.304688 13.09375 3.09375 13.765625 4.054688 C 14.433594 5.015625 14.847656 6.121094 14.964844 7.273438 C 15.082031 8.425781 14.902344 9.585938 14.441406 10.65625 C 13.980469 11.726562 13.253906 12.667969 12.320312 13.402344 C 11.390625 14.136719 10.285156 14.640625 9.101562 14.863281 C 7.921875 15.089844 6.699219 15.03125 5.546875 14.695312 C 4.835938 14.492188 4.167969 14.183594 3.5625 13.789062 C 3.441406 13.710938 3.425781 13.546875 3.527344 13.445312 L 5.601562 11.40625 C 5.675781 11.328125 5.796875 11.3125 5.890625 11.359375 C 6.09375 11.457031 6.304688 11.539062 6.523438 11.601562 C 7.144531 11.785156 7.804688 11.816406 8.445312 11.695312 C 9.082031 11.570312 9.679688 11.300781 10.183594 10.902344 C 10.6875 10.507812 11.082031 9.996094 11.332031 9.417969 C 11.582031 8.839844 11.675781 8.214844 11.613281 7.589844 C 11.550781 6.96875 11.328125 6.371094 10.964844 5.851562 C 10.601562 5.332031 10.113281 4.90625 9.539062 4.609375 Z M 9.539062 4.609375 "/>
<path style=" stroke:none;fill-rule:nonzero;fill:rgb(90.980392%,27.058824%,27.058824%);fill-opacity:1;" d="M 4.320312 3.402344 C 4.746094 3.128906 5.207031 2.914062 5.691406 2.761719 C 5.84375 2.714844 5.992188 2.824219 5.992188 2.976562 L 5.992188 5.160156 C 5.992188 5.242188 5.941406 5.320312 5.867188 5.363281 C 5.824219 5.386719 5.78125 5.414062 5.742188 5.441406 C 5.242188 5.761719 4.851562 6.214844 4.621094 6.75 C 4.390625 7.28125 4.328125 7.867188 4.445312 8.433594 C 4.457031 8.492188 4.472656 8.546875 4.488281 8.605469 C 4.507812 8.6875 4.488281 8.773438 4.425781 8.835938 L 2.832031 10.394531 C 2.722656 10.503906 2.535156 10.480469 2.464844 10.347656 C 2.21875 9.898438 2.039062 9.414062 1.9375 8.914062 C 1.71875 7.871094 1.832031 6.792969 2.253906 5.8125 C 2.679688 4.828125 3.398438 3.992188 4.320312 3.402344 Z M 4.320312 3.402344 "/>
</g>
</svg>
